Coordinates
version=1
nRows=15
nColumns=42
inDegrees=yes

Units are S.I. units (second, meters, Newtons, ...)
If the header above contains a line with 'inDegrees', this indicates whether rotational values are in degrees (yes) or radians (no).

endheader
time	pelvis_tilt	pelvis_list	pelvis_rotation	pelvis_tx	pelvis_ty	pelvis_tz	hip_flexion_r	hip_adduction_r	hip_rotation_r	knee_angle_r	knee_adduction_r	knee_angle_r_beta	ankle_angle_r	subtalar_angle_r	mtp_angle_r	hip_flexion_l	hip_adduction_l	hip_rotation_l	knee_angle_l	knee_adduction_l	knee_angle_l_beta	ankle_angle_l	subtalar_angle_l	mtp_angle_l	lumbar_extension	lumbar_bending	lumbar_rotation	arm_flex_r	arm_add_r	arm_rot_r	elbow_flex_r	pro_sup_r	wrist_flex_r	wrist_dev_r	arm_flex_l	arm_add_l	arm_rot_l	elbow_flex_l	pro_sup_l	wrist_flex_l	wrist_dev_l
      2.43000000	      9.83601340	      3.68379922	     -2.72617036	      1.65607546	      0.85820155	     -0.17566119	     17.91124303	     -7.04869418	     -8.39179707	     18.97369533	     -1.76940503	      0.33115345	     15.73298418	     15.16084413	     -7.50019936	    -29.35562725	      5.88189659	    -19.74217509	      6.95419894	      3.85323371	      0.12137367	     20.73316730	     21.58086707	     -7.50019936	    -22.29607183	     -5.71929634	     -5.71067338	     -4.53412876	     -1.46144538	    -30.68226160	     30.61409259	     90.00000001	      0.00000000	      0.00000000	      2.70869568	     -6.38229682	     -7.16092950	     48.06385819	     90.00000001	      0.00000000	      0.00000000
      2.44000000	      9.59323300	      3.82352859	     -2.70745720	      1.66850437	      0.85634718	     -0.17414708	     18.47898003	     -6.87045694	     -7.86488956	     19.23177232	     -1.96357718	      0.33565775	     15.72016384	     15.26047791	     -7.50019681	    -29.42330365	      5.80701712	    -19.58972159	      8.07219596	      3.51088789	      0.14088640	     20.73221737	     21.51232504	     -7.50019681	    -21.87996852	     -5.85690469	     -5.71381543	     -4.50300829	     -1.42411225	    -30.78213307	     30.27545853	     90.00000001	      0.00000000	      0.00000000	      2.93210612	     -6.31751067	     -7.17744281	     47.69812754	     90.00000001	      0.00000000	      0.00000000
      2.45000000	      9.31757287	      3.80889936	     -2.67612576	      1.68148987	      0.85447777	     -0.17254084	     18.99681911	     -6.55963899	     -7.52369917	     19.94322260	     -2.09039408	      0.34807490	     15.72741797	     14.98097111	     -7.50019425	    -29.48346673	      5.57613459	    -19.53714001	      9.18950286	      3.12180755	      0.16038708	     20.63418895	     21.45192251	     -7.50019425	    -21.37687029	     -5.84127042	     -5.70359745	     -4.54466713	     -1.39773159	    -30.93955173	     30.02546040	     90.00000001	      0.00000000	      0.00000000	      2.99416546	     -6.22311102	     -7.22977201	     47.37092717	     90.00000001	      0.00000000	      0.00000000
      2.46000000	      9.06068358	      3.70298059	     -2.61694100	      1.69466892	      0.85273064	     -0.17085258	     19.47731430	     -6.13544755	     -7.32340862	     21.10983546	     -2.30949124	      0.36843613	     15.68194118	     14.38491122	     -7.50019147	    -29.53100717	      5.20652214	    -19.58581820	     10.38987375	      2.75808744	      0.18133751	     20.40369444	     21.40359762	     -7.50019147	    -20.88002506	     -5.71958673	     -5.66288194	     -4.56403093	     -1.37270143	    -31.11861285	     29.87015129	     90.00000001	      0.00000000	      0.00000000	      3.00224838	     -6.09574258	     -7.31807486	     47.05219835	     90.00000001	      0.00000000	      0.00000000
      2.47000000	      8.78455456	      3.50842367	     -2.55258407	      1.70814847	      0.85105696	     -0.16904938	     19.87892637	     -5.61179307	     -7.24720362	     22.47520137	     -2.55503417	      0.39226626	     15.49476598	     13.71203646	     -7.50018865	    -29.56231545	      4.75095799	    -19.70639124	     11.59485438	      2.36021324	      0.20236839	     20.01156208	     21.38324507	     -7.50018865	    -20.35607750	     -5.50386070	     -5.61807906	     -4.64433981	     -1.35555609	    -31.29302789	     29.80162451	     90.00000001	      0.00000000	      0.00000000	      2.92327939	     -5.99203671	     -7.44185467	     46.77068850	     90.00000001	      0.00000000	      0.00000000
      2.48000000	      8.52531084	      3.11902475	     -2.44717772	      1.72185644	      0.84958996	     -0.16723147	     20.17542171	     -4.87466135	     -7.38216563	     23.98108869	     -2.94029174	      0.41854896	     15.11515345	     13.05573116	     -7.50018373	    -29.56986907	      4.06694603	    -20.13227240	     12.88830302	      1.90447939	      0.22494332	     19.53197833	     21.63742666	     -7.50018373	    -19.84839853	     -5.05783761	     -5.55921912	     -4.70207089	     -1.36073044	    -31.54762798	     29.82966194	     90.00000001	      0.00000000	      0.00000000	      2.78596195	     -5.83944126	     -7.65692920	     46.48751535	     90.00000001	      0.00000000	      0.00000000
      2.49000000	      8.31868356	      2.75159986	     -2.38827452	      1.73556090	      0.84841259	     -0.16520075	     20.37394628	     -4.14682042	     -7.40008144	     25.56196898	     -3.32715039	      0.44614052	     14.62171571	     12.66672718	     -7.50018003	    -29.58131300	      3.44377126	    -20.46018959	     14.20596426	      1.41645974	      0.24794085	     18.68123435	     21.60085715	     -7.50018003	    -19.41911431	     -4.67839153	     -5.49696324	     -4.74347940	     -1.33889666	    -31.60695961	     29.87411362	     90.00000001	      0.00000000	      0.00000000	      2.60709124	     -5.74875493	     -7.82481274	     46.21624718	     90.00000001	      0.00000000	      0.00000000
      2.50000000	      8.16198732	      2.37813694	     -2.34089225	      1.74922373	      0.84756245	     -0.16316574	     20.47902813	     -3.42979411	     -7.27224155	     27.17471344	     -3.69641990	      0.47428822	     14.09545051	     12.45595151	     -7.50017738	    -29.60128675	      2.83043679	    -20.64337253	     15.54178712	      0.95648368	      0.27125536	     17.61256452	     21.40698699	     -7.50017738	    -19.08672175	     -4.29022992	     -5.45533715	     -4.73977814	     -1.32929419	    -31.58400798	     29.95404960	     90.00000001	      0.00000000	      0.00000000	      2.40706597	     -5.66147435	     -7.98920477	     45.96162657	     90.00000001	      0.00000000	      0.00000000
      2.51000000	      8.11267936	      1.46768866	     -2.19058030	      1.76322181	      0.84711176	     -0.16087752	     20.34245180	     -2.10404111	     -7.75534592	     28.67793834	     -4.40199107	      0.50052445	     13.55104588	     12.60419422	     -7.50016716	    -29.59022757	      1.55344999	    -21.58495586	     17.23340060	      0.36410765	      0.30077958	     16.47134417	     21.74976904	     -7.50016716	    -18.87203202	     -3.32011621	     -5.38544899	     -4.77578601	     -1.37630897	    -31.33382872	     30.15404881	     90.00000001	      0.00000000	      0.00000000	      2.15528229	     -5.45793792	     -8.47654424	     45.65943331	     90.00000001	      0.00000000	      0.00000000
      2.52000000	      8.09093667	      1.05285218	     -2.18276218	      1.77698536	      0.84697399	     -0.15894729	     20.26730030	     -1.42485431	     -7.44982954	     30.40044160	     -4.64930119	      0.53058780	     13.33796856	     12.27529942	     -7.50016520	    -29.57262567	      0.99002582	    -21.78109820	     18.71443158	     -0.24586555	      0.32662845	     14.75217873	     21.25681565	     -7.50016520	    -18.72674090	     -2.88311535	     -5.34157408	     -4.70160229	     -1.39725694	    -31.25575655	     30.24868233	     90.00000001	      0.00000000	      0.00000000	      1.88357193	     -5.36919885	     -8.63507209	     45.43421614	     90.00000001	      0.00000000	      0.00000000
      2.53000000	      8.18302250	      0.52228177	     -2.13887556	      1.79079646	      0.84726087	     -0.15690563	     19.97558367	     -0.63849752	     -7.05631889	     32.03572487	     -4.80334971	      0.55912888	     13.37873659	     11.84202663	     -7.50016352	    -29.55106639	      0.28733678	    -21.93076785	     20.36479840	     -0.86513603	      0.35543278	     12.79665959	     20.55835160	     -7.50016352	    -18.72481080	     -2.33894712	     -5.33734102	     -4.59744249	     -1.39645744	    -31.12183791	     30.39927446	     90.00000001	      0.00000000	      0.00000000	      1.58688582	     -5.27958384	     -8.88521056	     45.19614316	     90.00000001	      0.00000000	      0.00000000
      2.54000000	      8.39669761	     -0.17058952	     -2.04990903	      1.80473028	      0.84797392	     -0.15492668	     19.38291135	      0.34157819	     -6.57886913	     33.43164379	     -4.93196712	      0.58349226	     13.64308174	     10.96415739	     -7.50016132	    -29.49687525	     -0.57700239	    -22.16924281	     22.24042846	     -1.59766100	      0.38816870	     10.36209130	     19.41705153	     -7.50016132	    -18.85822764	     -1.60469276	     -5.32491352	     -4.50562128	     -1.42604674	    -30.86350190	     30.64478748	     90.00000001	      0.00000000	      0.00000000	      1.24844639	     -5.14242875	     -9.27179700	     44.98962024	     90.00000001	      0.00000000	      0.00000000
      2.55000000	      8.71102308	     -0.77610353	     -1.95463780	      1.81843712	      0.84904594	     -0.15300617	     18.57872080	      1.19243217	     -5.78103184	     34.66268200	     -4.80982793	      0.60497793	     14.13316274	     10.22948672	     -7.50015982	    -29.41552758	     -1.34144839	    -21.98842615	     24.23423360	     -2.25204611	      0.42296717	      8.21290779	     18.41510985	     -7.50015982	    -19.14695667	     -0.98394178	     -5.36892614	     -4.34153849	     -1.43726356	    -30.61495205	     30.88787475	     90.00000001	      0.00000000	      0.00000000	      0.94130487	     -5.06760633	     -9.57732201	     44.76772247	     90.00000001	      0.00000000	      0.00000000
      2.56000000	      9.07520828	     -2.12839639	     -1.92822994	      1.83186207	      0.85082192	     -0.15049980	     17.00817225	      3.25595793	     -2.92675131	     34.62248807	     -4.04004664	      0.60427641	     13.80521414	      5.15184439	     -7.50014480	    -29.27664983	     -2.89999796	    -21.72811989	     26.57913832	     -2.58716568	      0.46389348	      5.39131740	     14.99933133	     -7.50014480	    -19.56352025	      0.36209710	     -5.12510961	     -4.37203943	     -1.67680094	    -29.02686891	     31.45153892	     90.00000001	      0.00000000	      0.00000000	      0.66075875	     -4.78846204	    -10.37485956	     44.51124712	     90.00000001	      0.00000000	      0.00000000
      2.57000000	      9.49998558	     -2.73240034	     -1.75957473	      1.84538918	      0.85234395	     -0.14885993	     15.79436825	      4.03486454	     -2.44891779	     35.28064508	     -3.85425491	      0.61576342	     14.71351311	      4.64536400	     -7.50014235	    -28.86108992	     -3.65299039	    -21.53961150	     29.16066264	     -3.49922822	      0.50894958	      2.94887258	     13.51432438	     -7.50014235	    -19.98264959	      0.99261305	     -5.19208572	     -4.19454061	     -1.67768099	    -28.84860153	     31.86741522	     90.00000001	      0.00000000	      0.00000000	      0.32349041	     -4.72659336	    -10.63170312	     44.37156286	     90.00000001	      0.00000000	      0.00000000
